<svg width="741" height="476" viewBox="0 0 741 476" fill="none" xmlns="http://www.w3.org/2000/svg">
<g filter="url(#filter0_d_4621_22)">
<path d="M594.667 220.694C594.667 231.268 586.095 239.84 575.521 239.84H165.007C154.434 239.84 145.862 231.268 145.862 220.695V90.6837C145.862 80.1099 154.434 71.5381 165.007 71.5381H548.806C553.503 71.5381 558.035 69.8119 561.542 66.6878L569.011 60.0341C578.943 51.1852 594.667 58.2357 594.667 71.5381V220.694Z" fill="white"/>
</g>
<rect x="454.415" y="87.667" width="112.201" height="39.2705" rx="8.4151" fill="#FD9B79"/>
<path d="M469.112 98.0655H475.764C477.528 98.0655 478.895 98.4946 479.865 99.353C480.851 100.211 481.343 101.427 481.343 103.001C481.343 104.575 480.851 105.798 479.865 106.673C478.88 107.547 477.513 107.984 475.764 107.984H471.067V114.875H469.112V98.0655ZM475.573 106.363C478.132 106.363 479.412 105.242 479.412 103.001C479.412 100.791 478.132 99.6868 475.573 99.6868H471.067V106.363H475.573ZM493.549 109.367H485.061C485.124 110.718 485.49 111.743 486.157 112.443C486.825 113.126 487.771 113.468 488.995 113.468C490.346 113.468 491.585 113.007 492.714 112.085L493.358 113.492C492.849 113.969 492.197 114.35 491.403 114.636C490.608 114.906 489.797 115.042 488.971 115.042C487.159 115.042 485.728 114.509 484.679 113.444C483.646 112.379 483.129 110.909 483.129 109.033C483.129 107.841 483.36 106.792 483.821 105.886C484.282 104.964 484.925 104.249 485.752 103.74C486.594 103.231 487.548 102.977 488.613 102.977C490.155 102.977 491.363 103.486 492.237 104.503C493.111 105.504 493.549 106.887 493.549 108.652V109.367ZM488.637 104.479C487.62 104.479 486.801 104.797 486.181 105.433C485.577 106.069 485.219 106.967 485.108 108.127H491.856C491.824 106.951 491.53 106.053 490.974 105.433C490.417 104.797 489.638 104.479 488.637 104.479ZM502.235 102.977C505.017 102.977 506.408 104.511 506.408 107.579V114.875H504.477V107.698C504.477 106.617 504.262 105.83 503.833 105.338C503.42 104.845 502.752 104.598 501.83 104.598C500.765 104.598 499.915 104.924 499.279 105.576C498.643 106.228 498.325 107.11 498.325 108.222V114.875H496.394V103.263H498.301V105.171C498.683 104.455 499.215 103.915 499.899 103.549C500.582 103.168 501.361 102.977 502.235 102.977ZM520.245 98.0655V114.875H518.314V112.753C517.964 113.484 517.448 114.048 516.764 114.445C516.097 114.843 515.31 115.042 514.404 115.042C513.387 115.042 512.489 114.787 511.71 114.279C510.931 113.77 510.327 113.063 509.898 112.157C509.468 111.235 509.254 110.17 509.254 108.962C509.254 107.769 509.468 106.72 509.898 105.814C510.327 104.908 510.931 104.209 511.71 103.716C512.489 103.223 513.387 102.977 514.404 102.977C515.31 102.977 516.097 103.176 516.764 103.573C517.448 103.971 517.964 104.535 518.314 105.266V98.0655H520.245ZM514.785 113.444C515.914 113.444 516.78 113.063 517.384 112.3C518.004 111.521 518.314 110.424 518.314 109.009C518.314 107.595 518.004 106.506 517.384 105.743C516.78 104.98 515.914 104.598 514.785 104.598C513.657 104.598 512.775 104.98 512.139 105.743C511.519 106.506 511.209 107.579 511.209 108.962C511.209 110.376 511.519 111.481 512.139 112.276C512.775 113.055 513.657 113.444 514.785 113.444ZM523.823 114.875V103.263H525.754V114.875H523.823ZM523.632 98.2324H525.968V100.402H523.632V98.2324ZM535.206 102.977C537.987 102.977 539.378 104.511 539.378 107.579V114.875H537.447V107.698C537.447 106.617 537.232 105.83 536.803 105.338C536.39 104.845 535.722 104.598 534.8 104.598C533.735 104.598 532.885 104.924 532.249 105.576C531.613 106.228 531.295 107.11 531.295 108.222V114.875H529.364V103.263H531.272V105.171C531.653 104.455 532.186 103.915 532.869 103.549C533.552 103.168 534.331 102.977 535.206 102.977ZM553.311 103.263V114.088C553.311 115.82 552.866 117.124 551.976 117.998C551.086 118.888 549.766 119.333 548.018 119.333C545.983 119.333 544.274 118.809 542.892 117.76L543.535 116.329C544.314 116.838 545.045 117.203 545.729 117.426C546.412 117.648 547.175 117.76 548.018 117.76C549.13 117.76 549.973 117.458 550.545 116.854C551.117 116.265 551.403 115.399 551.403 114.255V112.204C551.07 112.951 550.553 113.524 549.854 113.921C549.17 114.318 548.359 114.517 547.422 114.517C546.404 114.517 545.498 114.279 544.704 113.802C543.925 113.325 543.313 112.649 542.868 111.775C542.439 110.901 542.224 109.891 542.224 108.747C542.224 107.603 542.439 106.593 542.868 105.719C543.313 104.845 543.925 104.169 544.704 103.692C545.498 103.216 546.404 102.977 547.422 102.977C548.344 102.977 549.146 103.176 549.83 103.573C550.513 103.971 551.03 104.535 551.38 105.266V103.263H553.311ZM547.803 112.92C548.916 112.92 549.79 112.554 550.426 111.823C551.062 111.076 551.38 110.05 551.38 108.747C551.38 107.46 551.062 106.45 550.426 105.719C549.806 104.972 548.932 104.598 547.803 104.598C546.675 104.598 545.784 104.972 545.133 105.719C544.497 106.45 544.179 107.46 544.179 108.747C544.179 110.05 544.497 111.076 545.133 111.823C545.784 112.554 546.675 112.92 547.803 112.92Z" fill="white"/>
<path d="M191.887 122.299H193.727V138.12H191.64L191.662 126.675L186.95 135.584H185.379L180.644 126.788L180.667 138.12H178.58V122.299H180.442L186.187 133.25L191.887 122.299ZM201.734 126.9C203.2 126.9 204.285 127.266 204.988 127.999C205.706 128.732 206.065 129.847 206.065 131.343V138.12H203.888V136.302C203.604 136.945 203.178 137.439 202.609 137.783C202.056 138.112 201.405 138.277 200.657 138.277C199.939 138.277 199.281 138.135 198.682 137.851C198.084 137.551 197.613 137.14 197.269 136.616C196.939 136.093 196.775 135.509 196.775 134.866C196.775 134.073 196.977 133.452 197.381 133.003C197.8 132.54 198.48 132.211 199.423 132.016C200.38 131.822 201.689 131.724 203.35 131.724H203.866V131.074C203.866 130.236 203.686 129.63 203.327 129.256C202.983 128.882 202.415 128.695 201.622 128.695C200.38 128.695 199.139 129.076 197.897 129.839L197.224 128.246C197.807 127.842 198.51 127.521 199.333 127.281C200.171 127.027 200.971 126.9 201.734 126.9ZM201.061 136.594C201.884 136.594 202.557 136.317 203.081 135.764C203.604 135.195 203.866 134.47 203.866 133.587V133.003H203.462C202.295 133.003 201.398 133.056 200.769 133.161C200.141 133.265 199.692 133.445 199.423 133.699C199.154 133.939 199.019 134.29 199.019 134.754C199.019 135.277 199.206 135.719 199.58 136.078C199.969 136.422 200.463 136.594 201.061 136.594ZM215.83 128.807L214.461 128.942C213.384 129.047 212.606 129.376 212.127 129.929C211.664 130.483 211.432 131.186 211.432 132.039V138.12H209.165V127.169H211.365V129.076C211.948 127.79 213.137 127.079 214.933 126.945L215.673 126.9L215.83 128.807ZM227.706 138.12H224.833L219.65 132.959V138.12H217.383V122.299H219.65V132.106L224.452 127.191H227.257L222.073 132.442L227.706 138.12ZM247.257 138.12L245.574 134.215H237.563L235.88 138.12H233.546L240.593 122.299H242.522L249.569 138.12H247.257ZM238.349 132.375H244.789L241.58 124.88L238.349 132.375ZM257.274 126.9C259.892 126.9 261.201 128.373 261.201 131.32V138.12H258.935V131.433C258.935 130.505 258.748 129.824 258.374 129.391C258.015 128.957 257.446 128.74 256.668 128.74C255.756 128.74 255.023 129.024 254.469 129.593C253.916 130.161 253.639 130.924 253.639 131.881V138.12H251.372V127.169H253.594V128.919C253.953 128.261 254.454 127.76 255.097 127.416C255.741 127.072 256.466 126.9 257.274 126.9ZM274.4 122.299V138.12H272.156V136.235C271.827 136.893 271.348 137.402 270.72 137.761C270.091 138.105 269.366 138.277 268.543 138.277C267.601 138.277 266.755 138.038 266.007 137.559C265.274 137.08 264.698 136.407 264.279 135.539C263.875 134.672 263.673 133.677 263.673 132.555C263.673 131.418 263.875 130.423 264.279 129.57C264.698 128.717 265.274 128.059 266.007 127.595C266.74 127.132 267.586 126.9 268.543 126.9C269.366 126.9 270.084 127.079 270.697 127.438C271.326 127.782 271.804 128.276 272.133 128.919V122.299H274.4ZM269.082 136.482C270.069 136.482 270.824 136.145 271.348 135.472C271.887 134.799 272.156 133.841 272.156 132.6C272.156 131.358 271.887 130.4 271.348 129.727C270.824 129.054 270.069 128.717 269.082 128.717C268.094 128.717 267.324 129.054 266.77 129.727C266.232 130.385 265.962 131.328 265.962 132.555C265.962 133.781 266.239 134.746 266.793 135.449C267.346 136.138 268.109 136.482 269.082 136.482ZM286.94 133.026H279.198C279.363 135.345 280.515 136.504 282.654 136.504C283.911 136.504 285.048 136.093 286.065 135.27L286.76 136.863C286.252 137.297 285.623 137.641 284.875 137.895C284.127 138.15 283.365 138.277 282.587 138.277C280.836 138.277 279.452 137.776 278.435 136.773C277.433 135.771 276.932 134.387 276.932 132.622C276.932 131.5 277.149 130.505 277.582 129.637C278.031 128.77 278.652 128.097 279.445 127.618C280.253 127.139 281.165 126.9 282.183 126.9C283.664 126.9 284.823 127.378 285.661 128.336C286.514 129.293 286.94 130.617 286.94 132.308V133.026ZM282.228 128.56C281.36 128.56 280.664 128.837 280.141 129.391C279.632 129.929 279.325 130.707 279.221 131.724H284.988C284.943 130.707 284.681 129.929 284.202 129.391C283.739 128.837 283.08 128.56 282.228 128.56ZM296.102 128.807L294.733 128.942C293.656 129.047 292.878 129.376 292.4 129.929C291.936 130.483 291.704 131.186 291.704 132.039V138.12H289.438V127.169H291.637V129.076C292.22 127.79 293.409 127.079 295.205 126.945L295.945 126.9L296.102 128.807ZM301.406 138.277C299.506 138.277 297.987 137.813 296.85 136.886L297.546 135.248C298.668 136.115 299.977 136.549 301.473 136.549C302.206 136.549 302.767 136.429 303.156 136.19C303.545 135.936 303.739 135.584 303.739 135.135C303.739 134.746 303.605 134.44 303.335 134.215C303.081 133.991 302.632 133.804 301.989 133.654L300.171 133.25C299.199 133.026 298.466 132.659 297.972 132.151C297.478 131.642 297.232 130.999 297.232 130.221C297.232 129.234 297.628 128.433 298.421 127.82C299.229 127.206 300.284 126.9 301.585 126.9C302.363 126.9 303.104 127.027 303.807 127.281C304.51 127.521 305.116 127.865 305.624 128.313L304.929 129.907C303.852 129.054 302.737 128.628 301.585 128.628C300.897 128.628 300.351 128.762 299.947 129.032C299.558 129.301 299.363 129.667 299.363 130.131C299.363 130.505 299.483 130.812 299.723 131.051C299.977 131.276 300.373 131.448 300.912 131.567L302.774 131.994C303.837 132.233 304.614 132.607 305.108 133.116C305.602 133.609 305.849 134.26 305.849 135.068C305.849 136.055 305.445 136.841 304.637 137.424C303.844 137.993 302.767 138.277 301.406 138.277ZM313.129 138.277C312.052 138.277 311.102 138.045 310.279 137.581C309.471 137.118 308.843 136.459 308.394 135.607C307.96 134.739 307.743 133.737 307.743 132.6C307.743 131.448 307.96 130.445 308.394 129.593C308.843 128.725 309.471 128.059 310.279 127.595C311.102 127.132 312.052 126.9 313.129 126.9C314.206 126.9 315.148 127.132 315.956 127.595C316.779 128.059 317.407 128.725 317.841 129.593C318.29 130.445 318.514 131.448 318.514 132.6C318.514 133.737 318.29 134.739 317.841 135.607C317.407 136.459 316.779 137.118 315.956 137.581C315.148 138.045 314.206 138.277 313.129 138.277ZM313.129 136.482C314.131 136.482 314.894 136.153 315.418 135.494C315.956 134.836 316.226 133.871 316.226 132.6C316.226 131.343 315.956 130.385 315.418 129.727C314.879 129.054 314.116 128.717 313.129 128.717C312.141 128.717 311.378 129.054 310.84 129.727C310.301 130.385 310.032 131.343 310.032 132.6C310.032 133.871 310.294 134.836 310.817 135.494C311.356 136.153 312.126 136.482 313.129 136.482ZM326.94 126.9C329.558 126.9 330.867 128.373 330.867 131.32V138.12H328.6V131.433C328.6 130.505 328.413 129.824 328.039 129.391C327.68 128.957 327.112 128.74 326.334 128.74C325.421 128.74 324.688 129.024 324.135 129.593C323.581 130.161 323.304 130.924 323.304 131.881V138.12H321.038V127.169H323.26V128.919C323.619 128.261 324.12 127.76 324.763 127.416C325.406 127.072 326.132 126.9 326.94 126.9Z" fill="#6C71A1"/>
<path d="M185.982 175.007C183.542 175.007 181.691 174.376 180.428 173.114C179.166 171.852 178.535 170.009 178.535 167.585V156.982H181.716V167.762C181.716 169.294 182.078 170.455 182.801 171.246C183.525 172.02 184.585 172.407 185.982 172.407C187.362 172.407 188.414 172.012 189.138 171.221C189.862 170.43 190.224 169.277 190.224 167.762V156.982H193.404V167.585C193.404 169.992 192.773 171.835 191.511 173.114C190.249 174.376 188.406 175.007 185.982 175.007ZM203.967 162.132C205.027 162.132 205.97 162.402 206.794 162.94C207.636 163.479 208.284 164.244 208.738 165.237C209.21 166.214 209.445 167.341 209.445 168.62C209.445 169.899 209.21 171.019 208.738 171.978C208.284 172.937 207.644 173.678 206.82 174.2C205.995 174.721 205.044 174.982 203.967 174.982C203.092 174.982 202.309 174.797 201.619 174.427C200.929 174.056 200.399 173.543 200.029 172.887V179.324H196.873V162.435H199.978V164.303C200.349 163.613 200.879 163.083 201.569 162.713C202.276 162.326 203.075 162.132 203.967 162.132ZM203.134 172.533C204.127 172.533 204.901 172.197 205.456 171.524C206.012 170.833 206.29 169.866 206.29 168.62C206.29 167.341 206.012 166.348 205.456 165.641C204.901 164.934 204.127 164.581 203.134 164.581C202.124 164.581 201.342 164.926 200.786 165.616C200.248 166.306 199.978 167.291 199.978 168.57C199.978 169.832 200.248 170.808 200.786 171.498C201.342 172.188 202.124 172.533 203.134 172.533ZM223.951 156.982V174.78H220.82V172.786C220.45 173.476 219.912 174.014 219.205 174.401C218.515 174.789 217.724 174.982 216.832 174.982C215.771 174.982 214.82 174.713 213.979 174.174C213.154 173.636 212.506 172.878 212.035 171.902C211.581 170.909 211.353 169.773 211.353 168.494C211.353 167.215 211.581 166.096 212.035 165.136C212.506 164.177 213.154 163.437 213.979 162.915C214.804 162.393 215.755 162.132 216.832 162.132C217.724 162.132 218.515 162.317 219.205 162.688C219.895 163.058 220.425 163.58 220.795 164.253V156.982H223.951ZM217.665 172.533C218.675 172.533 219.449 172.188 219.987 171.498C220.543 170.808 220.82 169.824 220.82 168.545C220.82 167.265 220.543 166.289 219.987 165.616C219.449 164.926 218.683 164.581 217.69 164.581C216.68 164.581 215.898 164.918 215.342 165.591C214.787 166.264 214.509 167.232 214.509 168.494C214.509 169.773 214.787 170.766 215.342 171.473C215.898 172.18 216.672 172.533 217.665 172.533ZM232.499 162.132C234.232 162.132 235.52 162.553 236.361 163.395C237.203 164.236 237.623 165.532 237.623 167.282V174.78H234.619V172.887C234.333 173.543 233.879 174.056 233.256 174.427C232.65 174.797 231.943 174.982 231.135 174.982C230.311 174.982 229.562 174.814 228.888 174.477C228.215 174.141 227.685 173.678 227.298 173.089C226.911 172.5 226.717 171.843 226.717 171.12C226.717 170.211 226.945 169.495 227.399 168.974C227.87 168.452 228.628 168.073 229.671 167.838C230.715 167.602 232.154 167.484 233.988 167.484H234.619V166.904C234.619 166.062 234.434 165.456 234.064 165.086C233.71 164.716 233.113 164.531 232.271 164.531C231.615 164.531 230.925 164.648 230.201 164.884C229.494 165.103 228.796 165.414 228.106 165.818L227.222 163.647C227.912 163.209 228.745 162.848 229.722 162.561C230.698 162.275 231.623 162.132 232.499 162.132ZM231.766 172.71C232.608 172.71 233.29 172.432 233.811 171.877C234.35 171.305 234.619 170.573 234.619 169.681V169.15H234.165C233.037 169.15 232.162 169.201 231.539 169.302C230.916 169.403 230.47 169.58 230.201 169.832C229.932 170.085 229.797 170.43 229.797 170.867C229.797 171.406 229.982 171.852 230.353 172.205C230.723 172.542 231.194 172.71 231.766 172.71ZM247.142 172.609C247.512 172.609 247.899 172.584 248.303 172.533L248.152 174.881C247.647 174.932 247.184 174.957 246.763 174.957C245.03 174.957 243.751 174.561 242.926 173.77C242.101 172.962 241.689 171.768 241.689 170.186V164.808H239.316V162.435H241.689V158.749H244.844V162.435H248.101V164.808H244.844V170.135C244.844 171.784 245.61 172.609 247.142 172.609ZM260.98 169.176H252.573C252.674 170.32 253.019 171.17 253.608 171.725C254.197 172.281 255.039 172.559 256.133 172.559C257.496 172.559 258.741 172.121 259.869 171.246L260.778 173.417C260.206 173.888 259.482 174.267 258.607 174.553C257.748 174.839 256.882 174.982 256.006 174.982C253.987 174.982 252.388 174.41 251.21 173.265C250.049 172.121 249.468 170.556 249.468 168.57C249.468 167.308 249.72 166.188 250.225 165.212C250.73 164.236 251.437 163.479 252.346 162.94C253.272 162.402 254.315 162.132 255.476 162.132C257.176 162.132 258.514 162.679 259.49 163.773C260.483 164.867 260.98 166.373 260.98 168.292V169.176ZM255.552 164.354C254.711 164.354 254.029 164.623 253.507 165.162C253.002 165.7 252.691 166.474 252.573 167.484H258.279C258.245 166.458 257.992 165.683 257.521 165.162C257.05 164.623 256.394 164.354 255.552 164.354ZM278.771 175.007C277.021 175.007 275.489 174.637 274.176 173.897C272.88 173.139 271.879 172.07 271.172 170.69C270.482 169.31 270.137 167.703 270.137 165.869C270.137 164.034 270.482 162.435 271.172 161.072C271.879 159.692 272.88 158.632 274.176 157.891C275.489 157.134 277.021 156.755 278.771 156.755C279.966 156.755 281.094 156.94 282.154 157.31C283.214 157.681 284.106 158.202 284.83 158.876L283.744 161.249C282.936 160.609 282.137 160.146 281.346 159.86C280.555 159.557 279.713 159.406 278.821 159.406C277.105 159.406 275.775 159.961 274.833 161.072C273.907 162.183 273.444 163.782 273.444 165.869C273.444 167.972 273.907 169.58 274.833 170.69C275.775 171.801 277.105 172.357 278.821 172.357C279.713 172.357 280.555 172.214 281.346 171.927C282.137 171.624 282.936 171.153 283.744 170.514L284.83 172.887C284.106 173.56 283.214 174.082 282.154 174.452C281.094 174.822 279.966 175.007 278.771 175.007ZM292.908 174.982C291.645 174.982 290.535 174.721 289.575 174.2C288.633 173.678 287.901 172.929 287.379 171.953C286.857 170.977 286.596 169.84 286.596 168.545C286.596 167.249 286.857 166.121 287.379 165.162C287.901 164.186 288.633 163.437 289.575 162.915C290.535 162.393 291.645 162.132 292.908 162.132C294.17 162.132 295.272 162.393 296.215 162.915C297.174 163.437 297.906 164.186 298.411 165.162C298.933 166.121 299.194 167.249 299.194 168.545C299.194 169.84 298.933 170.977 298.411 171.953C297.906 172.929 297.174 173.678 296.215 174.2C295.272 174.721 294.17 174.982 292.908 174.982ZM292.882 172.533C293.909 172.533 294.692 172.197 295.23 171.524C295.769 170.85 296.038 169.857 296.038 168.545C296.038 167.249 295.769 166.264 295.23 165.591C294.692 164.901 293.917 164.556 292.908 164.556C291.898 164.556 291.115 164.901 290.56 165.591C290.021 166.264 289.752 167.249 289.752 168.545C289.752 169.857 290.021 170.85 290.56 171.524C291.098 172.197 291.873 172.533 292.882 172.533ZM308.968 162.132C310.45 162.132 311.552 162.553 312.276 163.395C312.999 164.236 313.361 165.507 313.361 167.207V174.78H310.206V167.383C310.206 166.424 310.02 165.726 309.65 165.288C309.297 164.85 308.733 164.632 307.959 164.632C307.05 164.632 306.318 164.918 305.762 165.49C305.224 166.062 304.954 166.828 304.954 167.787V174.78H301.799V162.435H304.879V164.278C305.3 163.588 305.863 163.058 306.57 162.688C307.277 162.317 308.076 162.132 308.968 162.132ZM322.878 172.609C323.248 172.609 323.635 172.584 324.039 172.533L323.887 174.881C323.383 174.932 322.92 174.957 322.499 174.957C320.765 174.957 319.486 174.561 318.662 173.77C317.837 172.962 317.425 171.768 317.425 170.186V164.808H315.052V162.435H317.425V158.749H320.58V162.435H323.837V164.808H320.58V170.135C320.58 171.784 321.346 172.609 322.878 172.609ZM334.014 164.758L332.171 164.934C330.085 165.153 329.041 166.214 329.041 168.115V174.78H325.885V162.435H328.89V164.606C329.529 163.125 330.85 162.317 332.853 162.183L333.812 162.107L334.014 164.758ZM340.802 162.132C342.535 162.132 343.823 162.553 344.664 163.395C345.506 164.236 345.927 165.532 345.927 167.282V174.78H342.922V172.887C342.636 173.543 342.182 174.056 341.559 174.427C340.953 174.797 340.246 174.982 339.439 174.982C338.614 174.982 337.865 174.814 337.192 174.477C336.519 174.141 335.988 173.678 335.601 173.089C335.214 172.5 335.021 171.843 335.021 171.12C335.021 170.211 335.248 169.495 335.702 168.974C336.174 168.452 336.931 168.073 337.974 167.838C339.018 167.602 340.457 167.484 342.291 167.484H342.922V166.904C342.922 166.062 342.737 165.456 342.367 165.086C342.014 164.716 341.416 164.531 340.575 164.531C339.918 164.531 339.228 164.648 338.505 164.884C337.798 165.103 337.099 165.414 336.409 165.818L335.526 163.647C336.216 163.209 337.049 162.848 338.025 162.561C339.001 162.275 339.927 162.132 340.802 162.132ZM340.07 172.71C340.911 172.71 341.593 172.432 342.115 171.877C342.653 171.305 342.922 170.573 342.922 169.681V169.15H342.468C341.34 169.15 340.465 169.201 339.843 169.302C339.22 169.403 338.774 169.58 338.505 169.832C338.235 170.085 338.101 170.43 338.101 170.867C338.101 171.406 338.286 171.852 338.656 172.205C339.026 172.542 339.497 172.71 340.07 172.71ZM354.763 174.982C353.468 174.982 352.34 174.721 351.381 174.2C350.438 173.678 349.714 172.937 349.209 171.978C348.705 171.019 348.452 169.899 348.452 168.62C348.452 167.341 348.713 166.214 349.235 165.237C349.773 164.244 350.531 163.479 351.507 162.94C352.483 162.402 353.611 162.132 354.89 162.132C355.765 162.132 356.615 162.275 357.439 162.561C358.281 162.831 358.954 163.201 359.459 163.672L358.55 165.894C358.029 165.473 357.473 165.153 356.884 164.934C356.312 164.716 355.74 164.606 355.167 164.606C354.073 164.606 353.223 164.951 352.618 165.641C352.012 166.315 351.709 167.291 351.709 168.57C351.709 169.832 352.012 170.808 352.618 171.498C353.223 172.171 354.073 172.508 355.167 172.508C355.74 172.508 356.312 172.399 356.884 172.18C357.473 171.961 358.029 171.641 358.55 171.221L359.459 173.417C358.921 173.905 358.23 174.292 357.389 174.578C356.547 174.847 355.672 174.982 354.763 174.982ZM367.846 172.609C368.216 172.609 368.603 172.584 369.007 172.533L368.856 174.881C368.351 174.932 367.888 174.957 367.467 174.957C365.734 174.957 364.455 174.561 363.63 173.77C362.805 172.962 362.393 171.768 362.393 170.186V164.808H360.02V162.435H362.393V158.749H365.549V162.435H368.805V164.808H365.549V170.135C365.549 171.784 366.314 172.609 367.846 172.609ZM391.592 174.78L389.8 170.615H381.141L379.348 174.78H376.066L384.12 156.982H386.77L394.824 174.78H391.592ZM382.201 168.09H388.714L385.458 160.517L382.201 168.09ZM408.461 162.435V173.644C408.461 175.58 407.922 177.044 406.845 178.037C405.785 179.03 404.211 179.526 402.124 179.526C401.047 179.526 400.012 179.383 399.019 179.097C398.026 178.828 397.159 178.441 396.419 177.936L397.302 175.714C398.834 176.64 400.416 177.103 402.048 177.103C404.236 177.103 405.33 176.026 405.33 173.871V172.256C404.96 172.946 404.422 173.484 403.715 173.871C403.008 174.242 402.2 174.427 401.291 174.427C400.214 174.427 399.255 174.174 398.413 173.669C397.588 173.148 396.941 172.424 396.469 171.498C395.998 170.573 395.762 169.504 395.762 168.292C395.762 167.08 395.99 166.012 396.444 165.086C396.915 164.143 397.572 163.42 398.413 162.915C399.255 162.393 400.214 162.132 401.291 162.132C402.2 162.132 403.008 162.326 403.715 162.713C404.422 163.083 404.96 163.613 405.33 164.303V162.435H408.461ZM402.124 171.978C403.134 171.978 403.917 171.65 404.472 170.993C405.044 170.337 405.33 169.437 405.33 168.292C405.33 167.131 405.044 166.222 404.472 165.566C403.917 164.909 403.134 164.581 402.124 164.581C401.131 164.581 400.349 164.909 399.776 165.566C399.204 166.222 398.918 167.131 398.918 168.292C398.918 169.42 399.204 170.32 399.776 170.993C400.349 171.65 401.131 171.978 402.124 171.978ZM419.858 164.758L418.015 164.934C415.928 165.153 414.885 166.214 414.885 168.115V174.78H411.729V162.435H414.733V164.606C415.373 163.125 416.694 162.317 418.697 162.183L419.656 162.107L419.858 164.758ZM431.977 169.176H423.57C423.671 170.32 424.016 171.17 424.606 171.725C425.195 172.281 426.036 172.559 427.13 172.559C428.493 172.559 429.739 172.121 430.866 171.246L431.775 173.417C431.203 173.888 430.479 174.267 429.604 174.553C428.746 174.839 427.879 174.982 427.004 174.982C424.984 174.982 423.385 174.41 422.207 173.265C421.046 172.121 420.465 170.556 420.465 168.57C420.465 167.308 420.718 166.188 421.223 165.212C421.728 164.236 422.434 163.479 423.343 162.94C424.269 162.402 425.312 162.132 426.474 162.132C428.174 162.132 429.512 162.679 430.488 163.773C431.481 164.867 431.977 166.373 431.977 168.292V169.176ZM426.549 164.354C425.708 164.354 425.026 164.623 424.505 165.162C424 165.7 423.688 166.474 423.57 167.484H429.276C429.242 166.458 428.99 165.683 428.519 165.162C428.047 164.623 427.391 164.354 426.549 164.354ZM445.389 169.176H436.982C437.083 170.32 437.428 171.17 438.017 171.725C438.606 172.281 439.448 172.559 440.542 172.559C441.905 172.559 443.15 172.121 444.278 171.246L445.187 173.417C444.615 173.888 443.891 174.267 443.016 174.553C442.157 174.839 441.291 174.982 440.415 174.982C438.396 174.982 436.797 174.41 435.619 173.265C434.458 172.121 433.877 170.556 433.877 168.57C433.877 167.308 434.129 166.188 434.634 165.212C435.139 164.236 435.846 163.479 436.755 162.94C437.681 162.402 438.724 162.132 439.885 162.132C441.585 162.132 442.923 162.679 443.899 163.773C444.892 164.867 445.389 166.373 445.389 168.292V169.176ZM439.961 164.354C439.119 164.354 438.438 164.623 437.916 165.162C437.411 165.7 437.1 166.474 436.982 167.484H442.688C442.654 166.458 442.401 165.683 441.93 165.162C441.459 164.623 440.803 164.354 439.961 164.354ZM462.638 162.132C464.034 162.132 465.078 162.553 465.768 163.395C466.458 164.219 466.803 165.49 466.803 167.207V174.78H463.647V167.333C463.647 166.39 463.488 165.709 463.168 165.288C462.848 164.85 462.335 164.632 461.628 164.632C460.786 164.632 460.13 164.918 459.659 165.49C459.187 166.062 458.952 166.862 458.952 167.888V174.78H455.796V167.333C455.796 166.39 455.636 165.709 455.316 165.288C455.014 164.85 454.5 164.632 453.776 164.632C452.952 164.632 452.304 164.918 451.833 165.49C451.361 166.062 451.126 166.862 451.126 167.888V174.78H447.97V162.435H451.05V164.177C451.42 163.504 451.934 162.999 452.59 162.662C453.246 162.309 453.995 162.132 454.837 162.132C456.705 162.132 457.942 162.906 458.548 164.455C458.935 163.731 459.49 163.167 460.214 162.763C460.938 162.343 461.746 162.132 462.638 162.132ZM480.841 169.176H472.434C472.535 170.32 472.88 171.17 473.469 171.725C474.058 172.281 474.9 172.559 475.994 172.559C477.357 172.559 478.602 172.121 479.73 171.246L480.639 173.417C480.066 173.888 479.343 174.267 478.468 174.553C477.609 174.839 476.742 174.982 475.867 174.982C473.848 174.982 472.249 174.41 471.071 173.265C469.909 172.121 469.329 170.556 469.329 168.57C469.329 167.308 469.581 166.188 470.086 165.212C470.591 164.236 471.298 163.479 472.207 162.94C473.132 162.402 474.176 162.132 475.337 162.132C477.037 162.132 478.375 162.679 479.351 163.773C480.344 164.867 480.841 166.373 480.841 168.292V169.176ZM475.413 164.354C474.571 164.354 473.89 164.623 473.368 165.162C472.863 165.7 472.552 166.474 472.434 167.484H478.139C478.106 166.458 477.853 165.683 477.382 165.162C476.911 164.623 476.254 164.354 475.413 164.354ZM490.592 162.132C492.073 162.132 493.175 162.553 493.899 163.395C494.622 164.236 494.984 165.507 494.984 167.207V174.78H491.829V167.383C491.829 166.424 491.644 165.726 491.273 165.288C490.92 164.85 490.356 164.632 489.582 164.632C488.673 164.632 487.941 164.918 487.385 165.49C486.847 166.062 486.578 166.828 486.578 167.787V174.78H483.422V162.435H486.502V164.278C486.923 163.588 487.486 163.058 488.193 162.688C488.9 162.317 489.7 162.132 490.592 162.132ZM504.501 172.609C504.871 172.609 505.258 172.584 505.662 172.533L505.511 174.881C505.006 174.932 504.543 174.957 504.122 174.957C502.389 174.957 501.11 174.561 500.285 173.77C499.46 172.962 499.048 171.768 499.048 170.186V164.808H496.675V162.435H499.048V158.749H502.203V162.435H505.46V164.808H502.203V170.135C502.203 171.784 502.969 172.609 504.501 172.609Z" fill="#2B3377"/>
<path d="M190.041 194.258L193.957 202.192L202.713 203.465L196.377 209.641L197.873 218.361L190.041 214.244L182.21 218.361L183.705 209.641L177.369 203.465L186.125 202.192L190.041 194.258Z" fill="#FFCD1A"/>
<path d="M218.092 194.258L222.008 202.192L230.764 203.465L224.428 209.641L225.924 218.361L218.092 214.244L210.26 218.361L211.756 209.641L205.42 203.465L214.176 202.192L218.092 194.258Z" fill="#FFCD1A"/>
<path d="M246.142 194.258L250.058 202.192L258.814 203.465L252.478 209.641L253.973 218.361L246.142 214.244L238.31 218.361L239.806 209.641L233.47 203.465L242.226 202.192L246.142 194.258Z" fill="#FFCD1A"/>
<path d="M274.192 194.258L278.108 202.192L286.864 203.465L280.528 209.641L282.024 218.361L274.192 214.244L266.361 218.361L267.856 209.641L261.521 203.465L270.277 202.192L274.192 194.258Z" fill="#FFCD1A"/>
<path d="M302.243 194.258L306.159 202.192L314.915 203.465L308.579 209.641L310.074 218.361L302.243 214.244L294.411 218.361L295.907 209.641L289.571 203.465L298.327 202.192L302.243 194.258Z" fill="#FFCD1A"/>
<defs>
<filter id="filter0_d_4621_22" x="0.00012207" y="-6.86646e-05" width="740.529" height="475.463" filterUnits="userSpaceOnUse" color-interpolation-filters="sRGB">
<feFlood flood-opacity="0" result="BackgroundImageFix"/>
<feColorMatrix in="SourceAlpha" type="matrix" values="0 0 0 0 0 0 0 0 0 0 0 0 0 0 0 0 0 0 127 0" result="hardAlpha"/>
<feOffset dy="89.761"/>
<feGaussianBlur stdDeviation="72.9308"/>
<feColorMatrix type="matrix" values="0 0 0 0 0 0 0 0 0 0 0 0 0 0 0 0 0 0 0.05 0"/>
<feBlend mode="normal" in2="BackgroundImageFix" result="effect1_dropShadow_4621_22"/>
<feBlend mode="normal" in="SourceGraphic" in2="effect1_dropShadow_4621_22" result="shape"/>
</filter>
</defs>
</svg>
