<svg width="619" height="397" viewBox="0 0 619 397" fill="none" xmlns="http://www.w3.org/2000/svg">
<g filter="url(#filter0_d_4621_20)">
<path d="M121.897 64.8835C121.897 54.9423 129.956 46.8835 139.897 46.8835H478.965C488.906 46.8835 496.965 54.9424 496.965 64.8835V168.561C496.965 178.502 488.906 186.561 478.965 186.561H160.404C156.361 186.561 152.458 188.039 149.43 190.718L143.255 196.182C134.964 203.517 121.897 197.631 121.897 186.561V64.8835Z" fill="white"/>
</g>
<rect x="391.477" y="59.6871" width="82.0461" height="32.5913" rx="7.03252" fill="#3ADAD9"/>
<path d="M409.62 68.1316H414.342C416.587 68.1316 418.321 68.7427 419.543 69.9648C420.778 71.1736 421.396 72.9004 421.396 75.1454C421.396 77.3903 420.778 79.1238 419.543 80.3459C418.321 81.568 416.587 82.1791 414.342 82.1791H409.62V68.1316ZM414.242 80.7843C417.882 80.7843 419.702 78.9047 419.702 75.1454C419.702 71.3994 417.882 69.5264 414.242 69.5264H411.254V80.7843H414.242ZM428.136 82.3186C427.219 82.3186 426.409 82.1127 425.705 81.7009C425.014 81.2891 424.476 80.7046 424.091 79.9474C423.719 79.177 423.533 78.287 423.533 77.2774C423.533 76.2679 423.719 75.3845 424.091 74.6273C424.476 73.8569 425.014 73.2657 425.705 72.854C426.409 72.4422 427.219 72.2363 428.136 72.2363C429.052 72.2363 429.863 72.4422 430.567 72.854C431.271 73.2657 431.809 73.8569 432.181 74.6273C432.566 75.3845 432.758 76.2679 432.758 77.2774C432.758 78.287 432.566 79.177 432.181 79.9474C431.809 80.7046 431.271 81.2891 430.567 81.7009C429.863 82.1127 429.052 82.3186 428.136 82.3186ZM428.136 80.9835C429.092 80.9835 429.823 80.6714 430.327 80.0471C430.846 79.4094 431.105 78.4862 431.105 77.2774C431.105 76.0952 430.846 75.1852 430.327 74.5476C429.809 73.8967 429.079 73.5713 428.136 73.5713C427.193 73.5713 426.462 73.8967 425.944 74.5476C425.426 75.1852 425.167 76.0952 425.167 77.2774C425.167 78.4729 425.419 79.3895 425.924 80.0271C426.442 80.6647 427.179 80.9835 428.136 80.9835ZM440.045 72.2363C442.369 72.2363 443.532 73.5181 443.532 76.0819V82.1791H441.918V76.1815C441.918 75.2782 441.739 74.6207 441.38 74.2089C441.034 73.7971 440.477 73.5912 439.706 73.5912C438.816 73.5912 438.105 73.8635 437.574 74.4081C437.043 74.9528 436.777 75.69 436.777 76.6199V82.1791H435.163V72.4754H436.757V74.0694C437.076 73.4716 437.521 73.02 438.092 72.7145C438.663 72.3957 439.314 72.2363 440.045 72.2363ZM454.618 77.5763H447.524C447.577 78.7054 447.883 79.5622 448.441 80.1467C448.999 80.7179 449.789 81.0035 450.812 81.0035C451.941 81.0035 452.977 80.6182 453.92 79.8478L454.458 81.0234C454.033 81.4219 453.488 81.7407 452.824 81.9798C452.16 82.2056 451.483 82.3186 450.792 82.3186C449.278 82.3186 448.082 81.8736 447.205 80.9835C446.342 80.0935 445.91 78.8648 445.91 77.2973C445.91 76.3011 446.103 75.4243 446.488 74.6672C446.873 73.8967 447.411 73.299 448.102 72.8739C448.806 72.4488 449.603 72.2363 450.493 72.2363C451.781 72.2363 452.791 72.6613 453.522 73.5115C454.252 74.3484 454.618 75.504 454.618 76.9785V77.5763ZM450.513 73.4916C449.663 73.4916 448.979 73.7572 448.461 74.2886C447.956 74.8199 447.657 75.5705 447.564 76.5402H453.203C453.176 75.5572 452.931 74.8067 452.466 74.2886C452.001 73.7572 451.35 73.4916 450.513 73.4916Z" fill="white"/>
<path d="M149.221 102.131V88.9095H151.152V100.518H157.566V102.131H149.221ZM167.095 92.979V102.131H165.257V100.649C164.969 101.174 164.569 101.574 164.057 101.849C163.557 102.124 162.994 102.262 162.369 102.262C160.143 102.262 159.031 101.037 159.031 98.5863V92.979H160.925V98.5675C160.925 99.3052 161.075 99.849 161.375 100.199C161.675 100.549 162.138 100.724 162.763 100.724C163.5 100.724 164.088 100.487 164.525 100.012C164.976 99.5365 165.201 98.9051 165.201 98.1175V92.979H167.095ZM173.758 102.262C172.833 102.262 172.027 102.068 171.339 101.681C170.664 101.293 170.139 100.749 169.764 100.049C169.401 99.3364 169.22 98.505 169.22 97.5548C169.22 96.6047 169.408 95.767 169.783 95.0419C170.17 94.3168 170.708 93.7542 171.395 93.3541C172.096 92.954 172.908 92.754 173.833 92.754C174.471 92.754 175.084 92.8603 175.671 93.0728C176.271 93.2853 176.759 93.5729 177.134 93.9354L176.553 95.2857C175.728 94.6106 174.871 94.273 173.983 94.273C173.108 94.273 172.421 94.5606 171.921 95.1357C171.433 95.6983 171.189 96.4984 171.189 97.5361C171.189 98.5613 171.433 99.3552 171.921 99.9178C172.408 100.468 173.096 100.743 173.983 100.743C174.871 100.743 175.728 100.405 176.553 99.7302L177.134 101.099C176.734 101.462 176.234 101.749 175.634 101.962C175.034 102.162 174.409 102.262 173.758 102.262ZM185.299 92.9978H187.193L181.736 105.506H179.823L181.417 101.906L177.573 92.9978H179.561L182.411 99.9928L185.299 92.9978ZM202.762 88.9095H204.582V102.131H203.1L195.542 92.1539V102.131H193.723V88.9095H195.186L202.762 98.9051V88.9095ZM207.435 102.131V92.979H209.329V102.131H207.435ZM207.304 88.8908H209.479V90.8599H207.304V88.8908ZM215.803 92.754C217.028 92.754 217.934 93.0603 218.522 93.6729C219.122 94.2855 219.422 95.2169 219.422 96.4672V102.131H217.603V100.612C217.365 101.149 217.009 101.562 216.534 101.849C216.071 102.124 215.528 102.262 214.902 102.262C214.302 102.262 213.752 102.143 213.252 101.906C212.752 101.656 212.358 101.312 212.071 100.874C211.796 100.437 211.658 99.949 211.658 99.4114C211.658 98.7488 211.827 98.23 212.164 97.8549C212.515 97.4673 213.083 97.1923 213.871 97.0298C214.671 96.8672 215.765 96.786 217.153 96.786H217.584V96.2421C217.584 95.542 217.434 95.0356 217.134 94.7231C216.847 94.4105 216.371 94.2543 215.709 94.2543C214.671 94.2543 213.633 94.5731 212.596 95.2107L212.033 93.8792C212.521 93.5416 213.108 93.2728 213.796 93.0728C214.496 92.8603 215.165 92.754 215.803 92.754ZM215.24 100.855C215.928 100.855 216.49 100.624 216.928 100.162C217.365 99.6865 217.584 99.0801 217.584 98.3425V97.8549H217.247C216.271 97.8549 215.521 97.8987 214.996 97.9862C214.471 98.0737 214.096 98.2237 213.871 98.4363C213.646 98.6363 213.533 98.9301 213.533 99.3177C213.533 99.7552 213.69 100.124 214.002 100.424C214.327 100.712 214.74 100.855 215.24 100.855ZM226.945 92.754C229.133 92.754 230.227 93.9855 230.227 96.4484V102.131H228.333V96.5422C228.333 95.767 228.177 95.1982 227.864 94.8356C227.564 94.473 227.089 94.2918 226.439 94.2918C225.676 94.2918 225.063 94.5293 224.601 95.0044C224.138 95.4795 223.907 96.1171 223.907 96.9172V102.131H222.013V92.979H223.87V94.4418C224.17 93.8917 224.588 93.4729 225.126 93.1853C225.664 92.8978 226.27 92.754 226.945 92.754ZM236.644 92.754C237.869 92.754 238.775 93.0603 239.363 93.6729C239.963 94.2855 240.263 95.2169 240.263 96.4672V102.131H238.444V100.612C238.207 101.149 237.85 101.562 237.375 101.849C236.913 102.124 236.369 102.262 235.744 102.262C235.144 102.262 234.593 102.143 234.093 101.906C233.593 101.656 233.199 101.312 232.912 100.874C232.637 100.437 232.499 99.949 232.499 99.4114C232.499 98.7488 232.668 98.23 233.006 97.8549C233.356 97.4673 233.925 97.1923 234.712 97.0298C235.512 96.8672 236.606 96.786 237.994 96.786H238.425V96.2421C238.425 95.542 238.275 95.0356 237.975 94.7231C237.688 94.4105 237.213 94.2543 236.55 94.2543C235.512 94.2543 234.475 94.5731 233.437 95.2107L232.874 93.8792C233.362 93.5416 233.95 93.2728 234.637 93.0728C235.337 92.8603 236.006 92.754 236.644 92.754ZM236.081 100.855C236.769 100.855 237.331 100.624 237.769 100.162C238.207 99.6865 238.425 99.0801 238.425 98.3425V97.8549H238.088C237.113 97.8549 236.363 97.8987 235.837 97.9862C235.312 98.0737 234.937 98.2237 234.712 98.4363C234.487 98.6363 234.375 98.9301 234.375 99.3177C234.375 99.7552 234.531 100.124 234.843 100.424C235.169 100.712 235.581 100.855 236.081 100.855Z" fill="#6C71A1"/>
<path d="M149.286 117.192H154.772C157.205 117.192 159.09 117.846 160.426 119.154C161.776 120.448 162.451 122.27 162.451 124.619C162.451 126.968 161.776 128.796 160.426 130.104C159.09 131.412 157.205 132.066 154.772 132.066H149.286V117.192ZM154.603 129.851C158.021 129.851 159.73 128.107 159.73 124.619C159.73 121.145 158.021 119.408 154.603 119.408H152.008V129.851H154.603ZM174.011 127.382H166.985C167.07 128.339 167.358 129.049 167.85 129.513C168.342 129.977 169.046 130.21 169.96 130.21C171.099 130.21 172.14 129.844 173.082 129.112L173.842 130.927C173.364 131.321 172.759 131.637 172.027 131.876C171.31 132.115 170.586 132.235 169.854 132.235C168.167 132.235 166.83 131.757 165.846 130.8C164.875 129.844 164.39 128.536 164.39 126.876C164.39 125.821 164.601 124.886 165.023 124.07C165.445 123.254 166.036 122.621 166.795 122.171C167.569 121.721 168.441 121.496 169.411 121.496C170.832 121.496 171.95 121.953 172.766 122.868C173.596 123.782 174.011 125.041 174.011 126.644V127.382ZM169.475 123.353C168.771 123.353 168.202 123.578 167.766 124.028C167.344 124.478 167.084 125.125 166.985 125.969H171.753C171.725 125.111 171.514 124.464 171.12 124.028C170.726 123.578 170.178 123.353 169.475 123.353ZM183.24 121.77H185.835L181.32 132.066H179.02L174.547 121.77H177.332L180.244 129.049L183.24 121.77ZM195.994 127.382H188.969C189.053 128.339 189.341 129.049 189.834 129.513C190.326 129.977 191.029 130.21 191.943 130.21C193.083 130.21 194.123 129.844 195.066 129.112L195.825 130.927C195.347 131.321 194.742 131.637 194.011 131.876C193.294 132.115 192.569 132.235 191.838 132.235C190.15 132.235 188.814 131.757 187.829 130.8C186.859 129.844 186.374 128.536 186.374 126.876C186.374 125.821 186.585 124.886 187.007 124.07C187.429 123.254 188.019 122.621 188.779 122.171C189.552 121.721 190.424 121.496 191.395 121.496C192.815 121.496 193.934 121.953 194.749 122.868C195.579 123.782 195.994 125.041 195.994 126.644V127.382ZM191.458 123.353C190.755 123.353 190.185 123.578 189.749 124.028C189.327 124.478 189.067 125.125 188.969 125.969H193.737C193.709 125.111 193.498 124.464 193.104 124.028C192.71 123.578 192.161 123.353 191.458 123.353ZM198.151 132.066V117.192H200.789V132.066H198.151ZM208.213 132.235C207.158 132.235 206.23 132.017 205.428 131.581C204.64 131.145 204.029 130.519 203.593 129.703C203.157 128.887 202.939 127.938 202.939 126.855C202.939 125.772 203.157 124.83 203.593 124.028C204.029 123.212 204.64 122.586 205.428 122.15C206.23 121.714 207.158 121.496 208.213 121.496C209.268 121.496 210.189 121.714 210.977 122.15C211.778 122.586 212.39 123.212 212.812 124.028C213.248 124.83 213.466 125.772 213.466 126.855C213.466 127.938 213.248 128.887 212.812 129.703C212.39 130.519 211.778 131.145 210.977 131.581C210.189 132.017 209.268 132.235 208.213 132.235ZM208.192 130.188C209.05 130.188 209.704 129.907 210.154 129.345C210.604 128.782 210.829 127.952 210.829 126.855C210.829 125.772 210.604 124.949 210.154 124.387C209.704 123.81 209.057 123.522 208.213 123.522C207.369 123.522 206.715 123.81 206.251 124.387C205.801 124.949 205.576 125.772 205.576 126.855C205.576 127.952 205.801 128.782 206.251 129.345C206.701 129.907 207.348 130.188 208.192 130.188ZM221.572 121.496C222.458 121.496 223.246 121.721 223.935 122.171C224.638 122.621 225.179 123.261 225.559 124.091C225.953 124.907 226.15 125.849 226.15 126.918C226.15 127.987 225.953 128.923 225.559 129.724C225.179 130.526 224.645 131.145 223.956 131.581C223.267 132.017 222.472 132.235 221.572 132.235C220.84 132.235 220.186 132.08 219.61 131.771C219.033 131.461 218.59 131.032 218.281 130.484V135.864H215.643V121.749H218.238V123.311C218.548 122.734 218.991 122.291 219.568 121.981C220.158 121.658 220.826 121.496 221.572 121.496ZM220.876 130.188C221.705 130.188 222.352 129.907 222.817 129.345C223.281 128.768 223.513 127.959 223.513 126.918C223.513 125.849 223.281 125.02 222.817 124.429C222.352 123.838 221.705 123.543 220.876 123.543C220.032 123.543 219.378 123.831 218.914 124.408C218.463 124.984 218.238 125.807 218.238 126.876C218.238 127.931 218.463 128.747 218.914 129.323C219.378 129.9 220.032 130.188 220.876 130.188ZM241.025 132.256C239.562 132.256 238.283 131.947 237.185 131.328C236.102 130.695 235.266 129.802 234.675 128.648C234.098 127.495 233.81 126.152 233.81 124.619C233.81 123.086 234.098 121.749 234.675 120.61C235.266 119.457 236.102 118.571 237.185 117.952C238.283 117.319 239.562 117.002 241.025 117.002C242.024 117.002 242.966 117.157 243.852 117.467C244.738 117.776 245.484 118.212 246.089 118.775L245.181 120.758C244.506 120.223 243.838 119.837 243.177 119.597C242.516 119.344 241.813 119.218 241.067 119.218C239.633 119.218 238.522 119.682 237.734 120.61C236.96 121.538 236.574 122.875 236.574 124.619C236.574 126.377 236.96 127.72 237.734 128.648C238.522 129.577 239.633 130.041 241.067 130.041C241.813 130.041 242.516 129.921 243.177 129.682C243.838 129.429 244.506 129.035 245.181 128.501L246.089 130.484C245.484 131.046 244.738 131.482 243.852 131.792C242.966 132.101 242.024 132.256 241.025 132.256ZM252.839 132.235C251.784 132.235 250.856 132.017 250.054 131.581C249.267 131.145 248.655 130.519 248.219 129.703C247.783 128.887 247.565 127.938 247.565 126.855C247.565 125.772 247.783 124.83 248.219 124.028C248.655 123.212 249.267 122.586 250.054 122.15C250.856 121.714 251.784 121.496 252.839 121.496C253.894 121.496 254.815 121.714 255.603 122.15C256.405 122.586 257.017 123.212 257.438 124.028C257.874 124.83 258.092 125.772 258.092 126.855C258.092 127.938 257.874 128.887 257.438 129.703C257.017 130.519 256.405 131.145 255.603 131.581C254.815 132.017 253.894 132.235 252.839 132.235ZM252.818 130.188C253.676 130.188 254.33 129.907 254.78 129.345C255.23 128.782 255.455 127.952 255.455 126.855C255.455 125.772 255.23 124.949 254.78 124.387C254.33 123.81 253.683 123.522 252.839 123.522C251.995 123.522 251.341 123.81 250.877 124.387C250.427 124.949 250.202 125.772 250.202 126.855C250.202 127.952 250.427 128.782 250.877 129.345C251.327 129.907 251.974 130.188 252.818 130.188ZM272.527 121.496C273.695 121.496 274.567 121.848 275.143 122.551C275.72 123.24 276.008 124.302 276.008 125.737V132.066H273.371V125.842C273.371 125.055 273.238 124.485 272.97 124.133C272.703 123.768 272.274 123.585 271.683 123.585C270.98 123.585 270.432 123.824 270.038 124.302C269.644 124.78 269.447 125.448 269.447 126.306V132.066H266.81V125.842C266.81 125.055 266.676 124.485 266.409 124.133C266.156 123.768 265.727 123.585 265.122 123.585C264.433 123.585 263.891 123.824 263.498 124.302C263.104 124.78 262.907 125.448 262.907 126.306V132.066H260.27V121.749H262.844V123.205C263.153 122.643 263.582 122.221 264.131 121.939C264.679 121.644 265.305 121.496 266.008 121.496C267.569 121.496 268.603 122.143 269.11 123.437C269.433 122.832 269.897 122.361 270.502 122.024C271.107 121.672 271.782 121.496 272.527 121.496ZM290.947 121.496C292.114 121.496 292.986 121.848 293.563 122.551C294.139 123.24 294.428 124.302 294.428 125.737V132.066H291.79V125.842C291.79 125.055 291.657 124.485 291.39 124.133C291.122 123.768 290.693 123.585 290.103 123.585C289.399 123.585 288.851 123.824 288.457 124.302C288.063 124.78 287.866 125.448 287.866 126.306V132.066H285.229V125.842C285.229 125.055 285.095 124.485 284.828 124.133C284.575 123.768 284.146 123.585 283.541 123.585C282.852 123.585 282.311 123.824 281.917 124.302C281.523 124.78 281.326 125.448 281.326 126.306V132.066H278.689V121.749H281.263V123.205C281.572 122.643 282.001 122.221 282.55 121.939C283.098 121.644 283.724 121.496 284.427 121.496C285.989 121.496 287.022 122.143 287.529 123.437C287.852 122.832 288.316 122.361 288.921 122.024C289.526 121.672 290.201 121.496 290.947 121.496ZM306.581 121.749V132.066H304.007V130.484C303.683 131.046 303.247 131.482 302.699 131.792C302.15 132.087 301.531 132.235 300.842 132.235C298.311 132.235 297.045 130.814 297.045 127.973V121.749H299.682V127.994C299.682 128.726 299.83 129.267 300.125 129.619C300.42 129.97 300.884 130.146 301.517 130.146C302.249 130.146 302.832 129.907 303.268 129.429C303.719 128.937 303.944 128.29 303.944 127.488V121.749H306.581ZM315.317 121.496C316.555 121.496 317.476 121.848 318.081 122.551C318.686 123.254 318.988 124.316 318.988 125.737V132.066H316.351V125.885C316.351 125.083 316.196 124.499 315.887 124.133C315.592 123.768 315.12 123.585 314.473 123.585C313.714 123.585 313.102 123.824 312.638 124.302C312.188 124.78 311.963 125.42 311.963 126.222V132.066H309.326V121.749H311.9V123.29C312.251 122.713 312.722 122.27 313.313 121.96C313.904 121.651 314.572 121.496 315.317 121.496ZM321.667 132.066V121.749H324.304V132.066H321.667ZM321.519 116.96H324.431V119.555H321.519V116.96ZM331.728 132.235C330.645 132.235 329.703 132.017 328.901 131.581C328.114 131.145 327.509 130.526 327.087 129.724C326.665 128.923 326.454 127.987 326.454 126.918C326.454 125.849 326.672 124.907 327.108 124.091C327.558 123.261 328.191 122.621 329.007 122.171C329.823 121.721 330.765 121.496 331.834 121.496C332.565 121.496 333.276 121.616 333.965 121.855C334.668 122.08 335.231 122.389 335.653 122.783L334.893 124.64C334.457 124.288 333.993 124.021 333.501 123.838C333.022 123.655 332.544 123.564 332.066 123.564C331.152 123.564 330.441 123.852 329.935 124.429C329.429 124.991 329.176 125.807 329.176 126.876C329.176 127.931 329.429 128.747 329.935 129.323C330.441 129.886 331.152 130.167 332.066 130.167C332.544 130.167 333.022 130.076 333.501 129.893C333.993 129.71 334.457 129.443 334.893 129.091L335.653 130.927C335.202 131.335 334.626 131.658 333.923 131.897C333.219 132.122 332.488 132.235 331.728 132.235ZM341.756 121.496C343.204 121.496 344.28 121.848 344.984 122.551C345.687 123.254 346.039 124.337 346.039 125.8V132.066H343.528V130.484C343.289 131.032 342.909 131.461 342.389 131.771C341.882 132.08 341.292 132.235 340.616 132.235C339.927 132.235 339.301 132.094 338.739 131.813C338.176 131.532 337.733 131.145 337.41 130.653C337.086 130.16 336.924 129.612 336.924 129.007C336.924 128.247 337.114 127.65 337.494 127.214C337.888 126.778 338.521 126.461 339.393 126.264C340.265 126.067 341.467 125.969 343 125.969H343.528V125.484C343.528 124.78 343.373 124.274 343.064 123.965C342.768 123.655 342.269 123.5 341.566 123.5C341.017 123.5 340.441 123.599 339.836 123.796C339.245 123.979 338.661 124.239 338.085 124.576L337.346 122.762C337.923 122.396 338.619 122.094 339.435 121.855C340.251 121.616 341.024 121.496 341.756 121.496ZM341.144 130.336C341.847 130.336 342.417 130.104 342.853 129.64C343.303 129.162 343.528 128.55 343.528 127.804V127.361H343.148C342.206 127.361 341.474 127.404 340.954 127.488C340.434 127.572 340.061 127.72 339.836 127.931C339.611 128.142 339.498 128.43 339.498 128.796C339.498 129.246 339.653 129.619 339.962 129.914C340.272 130.195 340.666 130.336 341.144 130.336ZM353.993 130.252C354.303 130.252 354.626 130.231 354.964 130.188L354.837 132.15C354.415 132.193 354.028 132.214 353.677 132.214C352.228 132.214 351.159 131.883 350.47 131.222C349.781 130.547 349.436 129.548 349.436 128.226V123.733H347.453V121.749H349.436V118.669H352.073V121.749H354.795V123.733H352.073V128.184C352.073 129.563 352.713 130.252 353.993 130.252ZM356.507 132.066V121.749H359.144V132.066H356.507ZM356.359 116.96H359.27V119.555H356.359V116.96ZM366.568 132.235C365.513 132.235 364.585 132.017 363.783 131.581C362.996 131.145 362.384 130.519 361.948 129.703C361.512 128.887 361.294 127.938 361.294 126.855C361.294 125.772 361.512 124.83 361.948 124.028C362.384 123.212 362.996 122.586 363.783 122.15C364.585 121.714 365.513 121.496 366.568 121.496C367.623 121.496 368.544 121.714 369.332 122.15C370.134 122.586 370.746 123.212 371.168 124.028C371.604 124.83 371.822 125.772 371.822 126.855C371.822 127.938 371.604 128.887 371.168 129.703C370.746 130.519 370.134 131.145 369.332 131.581C368.544 132.017 367.623 132.235 366.568 132.235ZM366.547 130.188C367.405 130.188 368.059 129.907 368.509 129.345C368.959 128.782 369.184 127.952 369.184 126.855C369.184 125.772 368.959 124.949 368.509 124.387C368.059 123.81 367.412 123.522 366.568 123.522C365.724 123.522 365.07 123.81 364.606 124.387C364.156 124.949 363.931 125.772 363.931 126.855C363.931 127.952 364.156 128.782 364.606 129.345C365.056 129.907 365.703 130.188 366.547 130.188ZM379.99 121.496C381.228 121.496 382.149 121.848 382.754 122.551C383.359 123.254 383.661 124.316 383.661 125.737V132.066H381.024V125.885C381.024 125.083 380.869 124.499 380.56 124.133C380.265 123.768 379.794 123.585 379.147 123.585C378.387 123.585 377.775 123.824 377.311 124.302C376.861 124.78 376.636 125.42 376.636 126.222V132.066H373.999V121.749H376.573V123.29C376.924 122.713 377.395 122.27 377.986 121.96C378.577 121.651 379.245 121.496 379.99 121.496ZM392.3 117.192H398.798C400.387 117.192 401.625 117.593 402.511 118.395C403.397 119.183 403.84 120.294 403.84 121.728C403.84 123.163 403.397 124.281 402.511 125.083C401.625 125.885 400.387 126.285 398.798 126.285H395.021V132.066H392.3V117.192ZM398.46 124.197C400.331 124.197 401.266 123.381 401.266 121.749C401.266 120.92 401.034 120.308 400.57 119.914C400.106 119.506 399.403 119.302 398.46 119.302H395.021V124.197H398.46ZM405.995 132.066V117.192H408.632V132.066H405.995ZM415.783 121.496C417.231 121.496 418.307 121.848 419.011 122.551C419.714 123.254 420.065 124.337 420.065 125.8V132.066H417.555V130.484C417.316 131.032 416.936 131.461 416.415 131.771C415.909 132.08 415.318 132.235 414.643 132.235C413.954 132.235 413.328 132.094 412.766 131.813C412.203 131.532 411.76 131.145 411.436 130.653C411.113 130.16 410.951 129.612 410.951 129.007C410.951 128.247 411.141 127.65 411.521 127.214C411.915 126.778 412.548 126.461 413.42 126.264C414.292 126.067 415.494 125.969 417.027 125.969H417.555V125.484C417.555 124.78 417.4 124.274 417.091 123.965C416.795 123.655 416.296 123.5 415.593 123.5C415.044 123.5 414.467 123.599 413.863 123.796C413.272 123.979 412.688 124.239 412.112 124.576L411.373 122.762C411.95 122.396 412.646 122.094 413.462 121.855C414.278 121.616 415.051 121.496 415.783 121.496ZM415.171 130.336C415.874 130.336 416.444 130.104 416.88 129.64C417.33 129.162 417.555 128.55 417.555 127.804V127.361H417.175C416.233 127.361 415.501 127.404 414.981 127.488C414.46 127.572 414.088 127.72 413.863 127.931C413.638 128.142 413.525 128.43 413.525 128.796C413.525 129.246 413.68 129.619 413.989 129.914C414.299 130.195 414.693 130.336 415.171 130.336ZM428.737 121.496C429.975 121.496 430.896 121.848 431.501 122.551C432.106 123.254 432.408 124.316 432.408 125.737V132.066H429.771V125.885C429.771 125.083 429.616 124.499 429.307 124.133C429.012 123.768 428.54 123.585 427.893 123.585C427.134 123.585 426.522 123.824 426.058 124.302C425.608 124.78 425.383 125.42 425.383 126.222V132.066H422.746V121.749H425.32V123.29C425.671 122.713 426.142 122.27 426.733 121.96C427.324 121.651 427.992 121.496 428.737 121.496Z" fill="#2B3377"/>
<path d="M158.818 148.149L162.09 154.734L169.408 155.79L164.113 160.916L165.363 168.153L158.818 164.736L152.273 168.153L153.523 160.916L148.228 155.79L155.545 154.734L158.818 148.149Z" fill="#FFCD1A"/>
<path d="M182.259 148.149L185.532 154.734L192.849 155.79L187.554 160.916L188.804 168.153L182.259 164.736L175.714 168.153L176.964 160.916L171.669 155.79L178.987 154.734L182.259 148.149Z" fill="#FFCD1A"/>
<path d="M205.701 148.149L208.973 154.734L216.291 155.79L210.996 160.916L212.246 168.153L205.701 164.736L199.156 168.153L200.406 160.916L195.111 155.79L202.429 154.734L205.701 148.149Z" fill="#FFCD1A"/>
<path d="M229.143 148.149L232.415 154.734L239.732 155.79L234.438 160.916L235.688 168.153L229.143 164.736L222.598 168.153L223.848 160.916L218.553 155.79L225.87 154.734L229.143 148.149Z" fill="#FFCD1A"/>
<path d="M252.585 148.149L255.857 154.734L263.174 155.79L257.879 160.916L259.129 168.153L252.585 164.736L246.04 168.153L247.29 160.916L241.995 155.79L249.312 154.734L252.585 148.149Z" fill="#CCCCCC"/>
<circle opacity="0.6" cx="462.974" cy="168.78" r="12.893" stroke="#F8C953" stroke-width="2.34417"/>
<g filter="url(#filter1_d_4621_20)">
<path d="M459.053 208.322L451.564 198.464L444.672 209.474L436.792 204.47L443.552 193.491L431.591 190.711L465.157 167.944L459.053 208.322Z" fill="white"/>
<path d="M459.053 208.322L451.564 198.464L444.672 209.474L436.792 204.47L443.552 193.491L431.591 190.711L465.157 167.944L459.053 208.322Z" stroke="#F8C953" stroke-width="2.34417"/>
</g>
<defs>
<filter id="filter0_d_4621_20" x="-4.57764e-05" y="1.52588e-05" width="618.862" height="396.342" filterUnits="userSpaceOnUse" color-interpolation-filters="sRGB">
<feFlood flood-opacity="0" result="BackgroundImageFix"/>
<feColorMatrix in="SourceAlpha" type="matrix" values="0 0 0 0 0 0 0 0 0 0 0 0 0 0 0 0 0 0 127 0" result="hardAlpha"/>
<feOffset dy="75.0135"/>
<feGaussianBlur stdDeviation="60.9485"/>
<feColorMatrix type="matrix" values="0 0 0 0 0 0 0 0 0 0 0 0 0 0 0 0 0 0 0.05 0"/>
<feBlend mode="normal" in2="BackgroundImageFix" result="effect1_dropShadow_4621_20"/>
<feBlend mode="normal" in="SourceGraphic" in2="effect1_dropShadow_4621_20" result="shape"/>
</filter>
<filter id="filter1_d_4621_20" x="416.994" y="158.438" width="61.443" height="69.2105" filterUnits="userSpaceOnUse" color-interpolation-filters="sRGB">
<feFlood flood-opacity="0" result="BackgroundImageFix"/>
<feColorMatrix in="SourceAlpha" type="matrix" values="0 0 0 0 0 0 0 0 0 0 0 0 0 0 0 0 0 0 127 0" result="hardAlpha"/>
<feOffset dy="4.68835"/>
<feGaussianBlur stdDeviation="5.86043"/>
<feColorMatrix type="matrix" values="0 0 0 0 0.267483 0 0 0 0 0.281291 0 0 0 0 0.645833 0 0 0 0.4 0"/>
<feBlend mode="normal" in2="BackgroundImageFix" result="effect1_dropShadow_4621_20"/>
<feBlend mode="normal" in="SourceGraphic" in2="effect1_dropShadow_4621_20" result="shape"/>
</filter>
</defs>
</svg>
