<svg width="42" height="42" viewBox="0 0 42 42" fill="none" xmlns="http://www.w3.org/2000/svg">
<path d="M20.972 41.9441C32.5546 41.9441 41.9441 32.5546 41.9441 20.972C41.9441 9.3895 32.5546 0 20.972 0C9.3895 0 0 9.3895 0 20.972C0 32.5546 9.3895 41.9441 20.972 41.9441Z" fill="#373C59"/>
<path d="M27.4805 13.041C27.1944 13.041 26.9148 13.1258 26.6769 13.2848C26.4391 13.4437 26.2538 13.6696 26.1443 13.9339C26.0348 14.1982 26.0062 14.489 26.062 14.7695C26.1178 15.0501 26.2555 15.3078 26.4578 15.5101C26.66 15.7124 26.9178 15.8501 27.1984 15.9059C27.4789 15.9617 27.7697 15.9331 28.034 15.8236C28.2983 15.7141 28.5242 15.5288 28.6831 15.2909C28.842 15.0531 28.9269 14.7734 28.9269 14.4874C28.9269 14.1038 28.7745 13.7359 28.5032 13.4646C28.232 13.1934 27.8641 13.041 27.4805 13.041Z" fill="white"/>
<path d="M21.0667 14.8896C19.8686 14.8896 18.6973 15.2449 17.701 15.9106C16.7048 16.5763 15.9284 17.5224 15.4699 18.6294C15.0113 19.7364 14.8913 20.9544 15.1251 22.1296C15.3588 23.3047 15.9358 24.3842 16.783 25.2314C17.6303 26.0786 18.7098 26.6556 19.8849 26.8894C21.0601 27.1231 22.2781 27.0031 23.3851 26.5446C24.492 26.0861 25.4382 25.3096 26.1039 24.3134C26.7695 23.3171 27.1248 22.1459 27.1248 20.9477C27.1248 20.1522 26.9681 19.3644 26.6636 18.6294C26.3592 17.8944 25.913 17.2266 25.3505 16.664C24.7879 16.1015 24.1201 15.6552 23.3851 15.3508C22.6501 15.0463 21.8623 14.8896 21.0667 14.8896ZM21.0667 24.8244C20.3005 24.8221 19.5522 24.5927 18.9162 24.1653C18.2803 23.7379 17.7853 23.1316 17.4937 22.4231C17.2021 21.7145 17.127 20.9354 17.2779 20.1842C17.4288 19.4329 17.7989 18.7433 18.3416 18.2023C18.8842 17.6613 19.575 17.2933 20.3267 17.1447C21.0783 16.996 21.8572 17.0735 22.5649 17.3673C23.2726 17.661 23.8773 18.1579 24.3028 18.7952C24.7282 19.4324 24.9553 20.1815 24.9553 20.9477C24.9522 21.977 24.5411 22.963 23.8122 23.6897C23.0833 24.4163 22.096 24.8244 21.0667 24.8244Z" fill="white"/>
<path d="M25.8799 33.2412H16.0638C15.0938 33.2412 14.1334 33.0502 13.2373 32.679C12.3412 32.3078 11.527 31.7638 10.8412 31.078C10.1553 30.3921 9.61126 29.5779 9.24009 28.6818C8.86891 27.7857 8.67786 26.8253 8.67786 25.8554V16.0392C8.67786 14.0803 9.45606 12.2017 10.8412 10.8166C12.2263 9.43147 14.1049 8.65332 16.0638 8.65332H25.8799C27.8388 8.65332 29.7174 9.43147 31.1025 10.8166C32.4876 12.2017 33.2657 14.0803 33.2657 16.0392V25.8554C33.2657 26.8253 33.0748 27.7857 32.7036 28.6818C32.3324 29.5779 31.7883 30.3921 31.1025 31.078C30.4167 31.7638 29.6024 32.3078 28.7063 32.679C27.8102 33.0502 26.8498 33.2412 25.8799 33.2412ZM16.0638 10.9651C14.718 10.9651 13.4274 11.4997 12.4758 12.4513C11.5243 13.4028 10.9897 14.6934 10.9897 16.0392V25.8554C10.9865 26.5237 11.1155 27.1861 11.3691 27.8044C11.6227 28.4228 11.996 28.9849 12.4674 29.4586C12.9389 29.9323 13.4993 30.3082 14.1165 30.5647C14.7337 30.8211 15.3954 30.9532 16.0638 30.9531H25.8799C26.5463 30.9531 27.2061 30.8219 27.8217 30.5669C28.4373 30.3119 28.9967 29.9382 29.4678 29.467C29.939 28.9958 30.3128 28.4365 30.5678 27.8208C30.8228 27.2052 30.954 26.5454 30.954 25.8791V16.0392C30.954 14.6934 30.4194 13.4028 29.4678 12.4513C28.5163 11.4997 27.2256 10.9651 25.8799 10.9651H16.0638Z" fill="white"/>
</svg>
