<svg width="42" height="42" viewBox="0 0 42 42" fill="none" xmlns="http://www.w3.org/2000/svg">
<path d="M20.972 41.9441C32.5546 41.9441 41.9441 32.5546 41.9441 20.972C41.9441 9.38949 32.5546 0 20.972 0C9.3895 0 0 9.38949 0 20.972C0 32.5546 9.3895 41.9441 20.972 41.9441Z" fill="#373C59"/>
<path d="M32.5547 13.776C31.7976 14.1023 31.0002 14.3256 30.1837 14.4399C30.5631 14.4399 31.1084 13.7049 31.3692 13.4322C31.7121 13.0187 31.9736 12.544 32.1398 12.0333C32.1398 12.0333 32.1398 11.9384 32.1398 11.9147C32.12 11.9033 32.0975 11.8973 32.0746 11.8973C32.0517 11.8973 32.0292 11.9033 32.0094 11.9147C31.1427 12.3733 30.2229 12.7237 29.2708 12.958C29.2424 12.9759 29.2096 12.9854 29.176 12.9854C29.1424 12.9854 29.1095 12.9759 29.0812 12.958C29.0082 12.8694 28.929 12.7862 28.844 12.709C28.4499 12.3675 28.001 12.095 27.5162 11.9029C26.8717 11.6349 26.1734 11.5213 25.4772 11.5709C24.8016 11.6202 24.1432 11.8064 23.5419 12.1182C22.9407 12.43 22.4092 12.861 21.9798 13.3848C21.5362 13.9327 21.2203 14.5726 21.0551 15.2579C20.9248 15.9075 20.9248 16.5764 21.0551 17.2259C21.0551 17.3326 21.0551 17.3445 20.9602 17.3326C17.3397 16.9737 13.9813 15.2839 11.5353 12.5905C11.4286 12.4601 11.3693 12.4601 11.2863 12.5905C10.7879 13.4926 10.5969 14.5326 10.7424 15.553C10.8879 16.5733 11.3618 17.5185 12.0925 18.2455L12.6734 18.7553C12.0423 18.6998 11.4271 18.5269 10.8596 18.2455C10.741 18.1743 10.6936 18.2455 10.6817 18.3403C10.6643 18.5177 10.6643 18.6964 10.6817 18.8738C10.7939 19.7231 11.1296 20.5273 11.6545 21.2042C12.1794 21.8812 12.8747 22.4066 13.6693 22.7268C13.8622 22.8148 14.0653 22.8785 14.2739 22.9165C13.6808 23.0097 13.0768 23.0097 12.4837 22.9165C12.3533 22.9165 12.3059 22.9165 12.3533 23.0824C12.6578 23.8822 13.1619 24.5908 13.8177 25.1407C14.4734 25.6907 15.259 26.0636 16.0996 26.2241C16.271 26.2355 16.4414 26.2592 16.6093 26.2952C15.8819 26.9548 15.002 27.4232 14.0486 27.6586C12.8031 28.1013 11.4769 28.2711 10.1601 28.1565C9.94667 28.1565 9.91109 28.1565 9.85181 28.1565C9.79254 28.1565 9.85187 28.2395 9.91115 28.2988C10.172 28.4648 10.4446 28.6189 10.7173 28.773C11.5424 29.2137 12.413 29.5635 13.3136 29.8163C15.6249 30.5062 18.0762 30.5815 20.4256 30.0347C22.7749 29.488 24.941 28.338 26.7101 26.6983C27.9825 25.3165 28.9662 23.6945 29.6034 21.9274C30.2406 20.1603 30.5185 18.2838 30.4208 16.4079C30.4208 16.2656 30.5986 16.1826 30.7053 16.0997C31.4014 15.5578 32.0161 14.919 32.531 14.2028C32.6104 14.097 32.6522 13.9676 32.6496 13.8353C32.6496 13.8353 32.6496 13.7405 32.5547 13.776Z" fill="white"/>
</svg>
