<svg width="42" height="42" viewBox="0 0 42 42" fill="none" xmlns="http://www.w3.org/2000/svg">
<path d="M20.972 41.9441C32.5546 41.9441 41.9441 32.5546 41.9441 20.972C41.9441 9.3895 32.5546 0 20.972 0C9.3895 0 0 9.3895 0 20.972C0 32.5546 9.3895 41.9441 20.972 41.9441Z" fill="#373C59"/>
<path d="M32.199 18.0199C32.199 16.6837 31.6682 15.4021 30.7233 14.4572C29.7784 13.5123 28.4968 12.9814 27.1605 12.9814H14.2857C12.9494 12.9814 11.6678 13.5123 10.7229 14.4572C9.77798 15.4021 9.24719 16.6837 9.24719 18.0199V23.9476C9.24719 25.2839 9.77798 26.5655 10.7229 27.5104C11.6678 28.4553 12.9494 28.9861 14.2857 28.9861H27.1605C28.4968 28.9861 29.7784 28.4553 30.7233 27.5104C31.6682 26.5655 32.199 25.2839 32.199 23.9476V18.0199ZM24.6235 21.458L18.85 24.3151C18.6247 24.4455 17.8541 24.3151 17.8541 24.0187V18.1503C17.8541 17.8895 18.6366 17.7236 18.8618 17.854L24.3864 20.8652C24.6235 20.9601 24.8606 21.292 24.6235 21.4224V21.458Z" fill="white"/>
</svg>
